<?xml version="1.0" encoding="UTF-8" standalone="no"?>
<!-- Created with Inkscape (http://www.inkscape.org/) -->

<svg
   xmlns:dc="http://purl.org/dc/elements/1.1/"
   xmlns:cc="http://creativecommons.org/ns#"
   xmlns:rdf="http://www.w3.org/1999/02/22-rdf-syntax-ns#"
   xmlns:svg="http://www.w3.org/2000/svg"
   xmlns="http://www.w3.org/2000/svg"
   xmlns:xlink="http://www.w3.org/1999/xlink"
   xmlns:sodipodi="http://sodipodi.sourceforge.net/DTD/sodipodi-0.dtd"
   xmlns:inkscape="http://www.inkscape.org/namespaces/inkscape"
   width="520"
   height="570"
   viewBox="0 0 137.58334 150.81249"
   version="1.1"
   id="svg8"
   inkscape:version="0.92.4 (5da689c313, 2019-01-14)"
   sodipodi:docname="p6al.svg">
  <defs
     id="defs2">
    <pattern
       inkscape:collect="always"
       xlink:href="#Strips1_1"
       id="pattern6110"
       patternTransform="matrix(1.2511944,0,0,19.76893,-19.254149,245.31045)" />
    <pattern
       inkscape:isstock="true"
       inkscape:stockid="Stripes 1:1"
       id="Strips1_1"
       patternTransform="translate(0,0) scale(10,10)"
       height="1"
       width="2"
       patternUnits="userSpaceOnUse"
       inkscape:collect="always">
      <rect
         id="rect5378"
         height="2"
         width="1"
         y="-0.5"
         x="0"
         style="fill:black;stroke:none" />
    </pattern>
    <clipPath
       id="clipPath17">
      <path
         id="path19"
         d="M 0,-0.1 H 792.1 V 612 H 0 Z"
         inkscape:connector-curvature="0" />
    </clipPath>
  </defs>
  <sodipodi:namedview
     id="base"
     pagecolor="#ffffff"
     bordercolor="#666666"
     borderopacity="1.0"
     inkscape:pageopacity="0.0"
     inkscape:pageshadow="2"
     inkscape:zoom="0.98994949"
     inkscape:cx="173.63026"
     inkscape:cy="261.81836"
     inkscape:document-units="px"
     inkscape:current-layer="layer1"
     showgrid="false"
     units="px"
     inkscape:window-width="1916"
     inkscape:window-height="1033"
     inkscape:window-x="0"
     inkscape:window-y="22"
     inkscape:window-maximized="0">
    <inkscape:grid
       type="axonomgrid"
       id="grid4592"
       units="px"
       empspacing="2"
       spacingy="7.9374999"
       originx="67.733332"
       originy="67.733332"
       gridanglez="30"
       gridanglex="30" />
  </sodipodi:namedview>
  <metadata
     id="metadata5">
    <rdf:RDF>
      <cc:Work
         rdf:about="">
        <dc:format>image/svg+xml</dc:format>
        <dc:type
           rdf:resource="http://purl.org/dc/dcmitype/StillImage" />
        <dc:title></dc:title>
      </cc:Work>
    </rdf:RDF>
  </metadata>
  <g
     inkscape:label="Layer 1"
     inkscape:groupmode="layer"
     id="layer1"
     transform="translate(0,-146.18755)">
    <path
       style="fill:#cd9f61;fill-opacity:1;stroke:none;stroke-width:2.64583325;stroke-linecap:round;stroke-linejoin:round;stroke-miterlimit:4;stroke-dasharray:none;stroke-opacity:1"
       d="m 123.78428,265.25005 v -63.5 l -54.992613,31.75 v 63.5 z"
       id="path4596"
       inkscape:connector-curvature="0" />
    <path
       style="fill:#a97835;fill-opacity:1;stroke:none;stroke-width:2.64583325;stroke-linecap:round;stroke-linejoin:round;stroke-miterlimit:4;stroke-dasharray:none;stroke-opacity:1"
       d="m 13.799054,201.75005 54.992613,31.75 v 63.5 l -54.992613,-31.75 z"
       id="path4598"
       inkscape:connector-curvature="0" />
    <path
       id="path21"
       d="m 36.97609,234.19788 c -1.846744,-1.06457 -4.038012,-1.29987 -6.00246,-0.43615 a 0.1756128,0.1756128 0 0 0 -1.4e-4,1e-4 c -3.488342,1.53817 -4.902621,5.95909 -3.184462,9.85196 0.609837,1.38428 1.536313,2.52127 2.633791,3.34283 -0.333737,-0.0124 -0.67349,-7.2e-4 -1.016997,0.037 l 2.91e-4,9e-5 c -3.383617,0.3657 -5.876137,3.10918 -5.547911,6.13388 0.33001,3.03118 3.353052,5.1726 6.738932,4.80271 1.878687,-0.20305 3.482199,-1.13941 4.480849,-2.45081 0.137681,0.14252 0.283163,0.28047 0.435945,0.41335 l -0.715712,1.23965 a 0.21087365,0.21087365 0 0 0 -0.02817,0.10944 l 0.02946,1.55148 a 0.21087365,0.21087365 0 0 0 0.105355,0.17859 l 0.210849,-0.3652 0.103138,0.0595 -0.0261,-1.37377 0.651894,-1.12912 c 0.250487,0.19272 0.517709,0.37233 0.801077,0.53593 0.116357,0.0671 0.233559,0.13072 0.351893,0.19021 l -0.657462,1.13876 a 0.21087365,0.21087365 0 0 0 -0.02817,0.10943 l 0.02945,1.55149 a 0.21087365,0.21087365 0 0 0 0.105362,0.17859 l 0.210845,-0.36519 0.103133,0.0596 -0.0261,-1.37379 0.645746,-1.11846 c 0.411881,0.17956 0.830539,0.31645 1.248479,0.41124 -0.672539,1.53545 -0.698442,3.42989 0.07553,5.19178 a 0.10509088,0.10509088 0 0 0 2.16e-4,2.3e-4 c 1.375036,3.11299 4.740969,4.66025 7.531068,3.43053 l 1.06e-4,-3e-5 c 2.787815,-1.22564 3.919932,-4.76003 2.549146,-7.87078 -0.104873,-0.23818 -0.221638,-0.46694 -0.34867,-0.68621 1.107384,0.37461 2.334369,0.5213 3.601863,0.38314 4.201743,-0.45803 7.301983,-3.8663 6.891043,-7.63856 -0.230136,-2.11826 -1.520956,-3.88798 -3.354172,-4.94952 -1.425823,-0.82568 -3.179779,-1.22285 -5.018091,-1.02247 a 0.1756128,0.1756128 0 0 0 -2.02e-4,6e-5 c -3.432943,0.37752 -6.128947,2.71961 -6.777548,5.6178 -0.221165,-0.0432 -0.445129,-0.0565 -0.666008,-0.0402 -0.28415,-0.31632 -0.604146,-0.61345 -0.958597,-0.88357 0.686445,-1.06336 1.003853,-2.37645 1.917738,-2.98664 a 0.24613424,0.24613424 0 0 0 0.01227,-0.009 l 0.585932,-0.44508 0.0046,0.36743 -0.126572,-0.0434 -0.159553,0.46568 0.456825,0.15657 a 0.24613424,0.24613424 0 0 0 0.325838,-0.23597 l -0.01524,-1.20479 a 0.24613424,0.24613424 0 0 0 -0.115744,-0.20565 0.24613424,0.24613424 0 0 0 -0.279228,0.0128 l -0.973094,0.73916 c 0.0032,-0.002 0.0068,-0.005 0.01062,-0.007 l -0.01227,0.009 0.0012,-7.1e-4 c -1.110685,0.74923 -1.435218,2.14682 -2.036243,3.10289 -0.120554,-0.0795 -0.244299,-0.15614 -0.371353,-0.2295 -0.135657,-0.0783 -0.272598,-0.1516 -0.410679,-0.21986 0.52711,-0.99984 1.572191,-1.98228 1.665657,-3.31906 l -1.43e-4,0.002 0.0014,-0.0149 c 1.32e-4,0.004 -5.53e-4,0.009 -0.0011,0.0129 l 0.153609,-1.21219 a 0.24613424,0.24613424 0 0 0 -0.126951,-0.24731 0.24613424,0.24613424 0 0 0 -0.237557,0.001 l -1.051,0.58919 a 0.24613424,0.24613424 0 0 0 -0.04143,0.40016 l 0.364002,0.31735 0.323512,-0.37102 -0.100848,-0.0879 0.320506,-0.17971 -0.09248,0.72998 a 0.24613424,0.24613424 0 0 0 -0.0014,0.0149 c -0.07161,1.09821 -1.048215,2.03273 -1.62516,3.16006 -0.464395,-0.19198 -0.936443,-0.32886 -1.405369,-0.41402 -0.10533,-0.24391 -0.250017,-0.4719 -0.430199,-0.67431 2.375965,-1.98525 3.155242,-5.64128 1.705871,-8.92538 -0.750616,-1.70493 -1.978438,-3.03483 -3.414752,-3.8629 z m -1.034637,0.97935 a 0.52683818,0.52683818 0 0 1 0.04328,0.0299 c 0.637985,0.49204 1.255512,0.9501 1.728554,1.60162 0.473038,0.65152 0.763511,1.49189 0.761835,2.6067 a 0.52683818,0.52683818 0 0 1 -0.102709,0.31181 c -0.253143,0.34339 -0.630616,1.107 -1.160684,1.81661 -0.53008,0.7096 -1.268316,1.41634 -2.317885,1.55858 a 0.52683818,0.52683818 0 0 1 -0.07961,0.004 l -2.213643,-0.0373 c 0.582388,1.0197 1.245392,2.07344 1.765477,3.12383 l -0.01607,0.008 c 0.03586,0.0663 0.07075,0.13329 0.104308,0.20117 l -0.01492,0.007 c 0.250354,0.52867 0.29233,1.01394 0.0701,1.13985 -0.226681,0.13287 -0.651285,-0.17172 -0.987788,-0.68613 l -0.01185,0.006 c -0.0285,-0.0576 -0.05842,-0.1149 -0.08961,-0.17196 -0.0073,-0.0127 -0.0142,-0.0254 -0.02124,-0.0382 -0.505668,-0.90749 -1.335936,-1.75522 -2.112381,-2.6355 -0.836089,-0.94791 -1.63919,-1.96258 -1.724738,-3.25149 a 0.52683818,0.52683818 0 0 1 1.93e-4,-10e-4 c -0.04982,-0.77244 -0.205412,-1.76666 -0.132953,-2.7063 0.03623,-0.46982 0.129964,-0.93488 0.358345,-1.35368 0.223284,-0.40945 0.592582,-0.76255 1.084578,-0.96004 1.281575,-0.67115 2.629975,-1.04331 3.87961,-0.80605 0.358362,-0.009 0.727192,0.0433 1.100852,0.18708 a 0.52683818,0.52683818 0 0 1 0.08942,0.0442 z m 19.353031,11.81643 c 0.173241,0.0995 0.344431,0.20546 0.511969,0.31802 0.670673,0.44933 1.27677,1.00633 1.682732,1.68693 0.405971,0.68061 0.597896,1.50368 0.402332,2.36539 l -0.0036,-4.1e-4 c -0.05555,0.55053 -0.246255,0.94749 -0.505539,0.97014 -0.32115,0.0256 -0.633988,-0.51293 -0.751258,-1.25078 l -0.04402,-0.01 c 0.0095,-0.0418 0.01767,-0.0827 0.02496,-0.1231 -0.0059,-0.0485 -0.01129,-0.0975 -0.01552,-0.14734 -0.02275,-0.24629 -0.01998,-0.48053 0.0026,-0.69198 -0.04415,-0.17937 -0.115105,-0.34524 -0.208051,-0.50365 -0.237791,-0.40525 -0.642026,-0.76015 -1.140358,-1.04218 -0.996671,-0.56404 -2.366613,-0.80402 -3.109592,-0.75438 a 0.52683818,0.52683818 0 0 1 -0.0012,-6e-5 c -0.209455,0.0135 -0.334196,0.0206 -0.474159,0.0284 l 1.614345,2.11806 a 0.52683818,0.52683818 0 0 1 0.06836,0.11933 c 0.754574,1.83876 -0.0623,3.86066 -1.396038,5.09611 a 0.52683818,0.52683818 0 0 1 -10e-4,0.001 c -0.53646,0.49519 -1.102848,0.74314 -1.673666,0.68446 -0.570815,-0.0587 -1.067694,-0.3171 -1.798609,-0.61965 -0.721316,-0.29822 -1.313868,-0.47635 -1.82955,-0.85981 -0.515575,-0.38338 -0.862274,-0.99327 -1.000383,-1.86832 -0.148229,-0.93108 -0.07984,-2.03188 0.222264,-3.03742 0.302081,-1.00548 0.842977,-1.947 1.76087,-2.39997 1.917935,-0.94685 1.750665,-0.9288 4.16712,-1.08465 0.965289,-0.0645 2.28176,0.30978 3.494375,1.00642 z M 35.394657,236.28813 c -0.238564,-0.13361 -0.487746,-0.22897 -0.747103,-0.28863 -0.240515,0.0207 -0.488748,0.0848 -0.764179,0.18111 -0.591025,0.20673 -1.266121,0.57044 -2.064798,0.87321 -0.344846,0.1326 -0.517112,0.26488 -0.604072,0.37175 -0.08696,0.10688 -0.120268,0.20388 -0.131383,0.39001 -0.02215,0.37232 0.146599,1.03905 0.203956,1.90575 a 0.52683818,0.52683818 0 0 1 3.3e-5,5.3e-4 c 0.04602,0.70676 0.337336,1.47486 0.736694,2.27679 l 2.733868,-0.4111 a 0.52683818,0.52683818 0 0 1 0.0077,-0.001 c 1.356728,-0.18387 1.875518,-1.35913 2.535784,-2.30182 0.07195,-0.4415 -0.07093,-0.92752 -0.406923,-1.44671 -0.351029,-0.54242 -0.901571,-1.08806 -1.499472,-1.54984 z m 3.764154,3.17617 c 0.48594,0.31356 0.868861,0.76259 1.077683,1.32236 0.57797,1.52969 -0.357678,3.29685 -2.093119,3.94784 -1.497635,0.56528 -3.097522,0.10862 -3.876219,-1.01514 0.843828,0.54179 1.995846,0.67689 3.091773,0.26324 1.735442,-0.65099 2.673533,-2.42238 2.095562,-3.95207 -0.07653,-0.2037 -0.17636,-0.39276 -0.29568,-0.56623 z m -4.013803,-2.10237 c 1.007001,0.58139 1.361908,1.85254 0.790286,2.84261 -0.571621,0.99008 -1.849914,1.31829 -2.856915,0.7369 -1.007002,-0.5814 -1.361913,-1.85253 -0.790292,-2.84261 0.571622,-0.99008 1.849919,-1.31829 2.856921,-0.7369 z m -0.464786,1.34688 c -0.198092,-0.11767 -0.435936,-0.16848 -0.678703,-0.12847 -0.559123,0.089 -0.934796,0.62245 -0.839756,1.19068 0.09503,0.56824 0.623568,0.95238 1.178465,0.86092 0.554892,-0.0915 0.930564,-0.62489 0.835525,-1.19312 -0.05107,-0.31826 -0.240668,-0.57903 -0.495531,-0.73001 z m 15.771407,9.21192 c -0.648225,0.0712 -0.859204,0.22017 -2.116103,0.84068 -0.588512,0.2916 -0.97384,0.78564 -1.200846,1.42541 -0.227011,0.63977 -0.276401,1.41928 -0.154829,2.18289 a 0.52683818,0.52683818 0 0 1 1.98e-4,7.1e-4 c 0.05686,0.36066 0.133118,0.57793 0.203888,0.70063 0.07077,0.12269 0.125372,0.1698 0.248418,0.23554 0.246118,0.13146 0.808543,0.23701 1.603099,0.5659 0.742555,0.30737 1.18467,0.46685 1.42974,0.47182 0.245052,0.005 0.417459,-0.0676 0.857916,-0.47616 0.446853,-0.41465 0.592827,-1.04778 0.533252,-1.84135 -0.05936,-0.79079 -0.336868,-1.6875 -0.6464,-2.44221 l -0.782659,-1.65243 z m 3.938491,2.35878 c 0.806409,0.4829 1.421923,1.36491 1.598815,2.44513 0.300373,1.81509 -0.753094,3.50295 -2.355919,3.7679 -0.811906,0.13421 -1.607309,-0.12366 -2.23393,-0.64628 0.419534,0.15013 0.871387,0.19907 1.328473,0.12352 1.598597,-0.2674 2.656293,-1.95282 2.355925,-3.7679 -0.148809,-0.89922 -0.602618,-1.66111 -1.217349,-2.16918 0.181357,0.064 0.356819,0.14669 0.523975,0.24683 z m -4.100214,-0.63083 c 0.884302,0.51055 1.179187,1.65114 0.658868,2.55236 -0.520323,0.90123 -1.655543,1.21613 -2.539845,0.70558 -0.888532,-0.51299 -1.18342,-1.65357 -0.663097,-2.5548 0.52032,-0.90122 1.655542,-1.21614 2.544074,-0.70314 z m -0.584323,0.96935 c -0.197147,-0.11795 -0.433505,-0.16886 -0.674433,-0.12777 -0.548218,0.0897 -0.919654,0.62554 -0.826413,1.18711 0.09081,0.5658 0.615112,0.94749 1.167563,0.86026 0.550666,-0.0939 0.91966,-0.62553 0.828856,-1.19134 -0.05245,-0.31588 -0.241868,-0.57699 -0.495573,-0.72826 z m -11.886077,-3.71027 c 0.968264,0.55903 1.300823,1.78856 0.742114,2.75628 -0.556001,0.96302 -1.790344,1.29415 -2.758055,0.73544 -0.967715,-0.55871 -1.294218,-1.79024 -0.737892,-2.75383 0.55903,-0.96827 1.785564,-1.29692 2.753833,-0.73789 z m 6.486273,3.74486 c 0.968265,0.55903 1.296914,1.78556 0.737884,2.75382 -0.556326,0.96359 -1.786118,1.2966 -2.753825,0.73789 -0.967711,-0.55871 -1.298124,-1.79325 -0.742118,-2.75627 0.558709,-0.96771 1.78979,-1.29447 2.758059,-0.73544 z m -3.135997,-1.78929 c 0.552665,0.31908 1.037682,0.69961 1.448785,1.12021 -0.609899,0.17011 -1.156396,0.56824 -1.497112,1.15837 -0.689836,1.19483 -0.27632,2.73665 0.922285,3.42867 0.606772,0.35033 1.300441,0.41629 1.927094,0.24153 -0.06567,0.17483 -0.145586,0.34525 -0.240693,0.50998 -1.179621,2.04317 -4.24449,2.52997 -6.873642,1.01203 -2.629155,-1.51795 -3.740005,-4.4156 -2.560384,-6.45877 0.05828,-0.10094 0.121695,-0.19763 0.189012,-0.29089 0.201223,0.505 0.565977,0.94892 1.072322,1.24126 1.198613,0.69202 2.740625,0.27922 3.430461,-0.91561 0.325274,-0.5634 0.405551,-1.2018 0.275012,-1.79211 0.639632,0.14034 1.285464,0.38657 1.906847,0.74533 z m -3.727374,-1.16562 c -0.54158,-0.31269 -1.235669,-0.1267 -1.548351,0.41487 -0.312682,0.54159 -0.126699,1.23567 0.414881,1.54836 0.54158,0.31267 1.231439,0.12425 1.544121,-0.41732 0.312682,-0.54159 0.130929,-1.23323 -0.410651,-1.54591 z m 6.419719,3.72333 c -0.545814,-0.31512 -1.233226,-0.13093 -1.545908,0.41065 -0.310238,0.53735 -0.12849,1.22899 0.417325,1.54412 0.541579,0.31268 1.231435,0.12426 1.541673,-0.41309 0.312682,-0.54158 0.12849,-1.22899 -0.41309,-1.54168 z m -9.546717,-2.99835 c -3.31e-4,0.001 -2.41e-4,0.001 -5.01e-4,0.003 -0.0013,-0.001 -0.0026,-0.002 -0.0031,-0.004 0.0012,7e-5 0.0026,-1.3e-4 0.0036,4e-4 z m 15.720037,10.37818 -0.03243,0.0562 0.175196,0.10115 -0.252489,0.43732 0.0671,0.0387 0.252489,-0.43732 0.175196,0.10115 0.03243,-0.0562 z m 0.478644,0.27635 -0.284931,0.49351 0.06479,0.0374 0.250177,-0.43332 -0.06816,0.41196 0.0671,0.0387 0.322688,-0.26501 -0.250196,0.43335 0.06512,0.0376 0.284931,-0.49351 -0.0995,-0.0574 -0.320497,0.26274 0.06795,-0.40855 z m -14.021277,-6.59817 c -0.338371,0.42912 -0.282894,0.99999 -0.06943,1.49694 0.213465,0.49695 0.589066,0.96988 1.028859,1.33287 0.439795,0.36297 0.945218,0.62748 1.46748,0.61454 0.509567,-0.0126 0.988277,-0.37158 1.205799,-1.01382 l 0.05565,-0.0964 -0.547267,-0.31596 -0.06595,0.11424 a 0.31596452,0.31596452 0 0 0 -0.02808,0.0642 c -0.156746,0.50368 -0.356728,0.60916 -0.635771,0.61614 -0.279179,0.007 -0.684829,-0.16895 -1.049794,-0.47017 -0.364969,-0.30122 -0.687798,-0.71634 -0.850451,-1.095 -0.162652,-0.37867 -0.160982,-0.67097 -0.01485,-0.85629 z m -5.122753,-2.59773 c 0.02828,0.0159 0.05626,0.0322 0.08386,0.0489 0.531104,0.32074 0.947949,0.79147 1.170972,1.38353 0.590492,1.5764 -0.419398,3.41354 -2.262283,4.10404 -1.84109,0.69718 -3.814056,-0.0188 -4.40878,-1.59765 -0.590497,-1.5764 0.4194,-3.41353 2.26049,-4.11071 1.115807,-0.41808 2.279306,-0.32056 3.155701,0.17191 z m 13.735611,7.93603 c 0.864685,0.51276 1.530888,1.47161 1.726723,2.64697 0.31677,1.94302 -0.769284,3.73618 -2.429736,4.013 -1.664681,0.27437 -3.271219,-1.07628 -3.592227,-3.02173 -0.319209,-1.9388 0.769288,-3.73619 2.427296,-4.00878 0.624256,-0.10289 1.240351,0.0227 1.783657,0.32233 0.02823,0.0156 0.05629,0.0319 0.08432,0.0481 z m -13.669645,-6.67697 c -0.468531,-0.28197 -1.189311,-0.31951 -1.903775,-0.0494 -1.036774,0.38867 -1.65947,1.28156 -1.391134,1.98935 0.265891,0.71202 1.322801,0.97245 2.359574,0.58379 1.034984,-0.39536 1.65768,-1.28825 1.393575,-1.9936 -0.08441,-0.22326 -0.245276,-0.40197 -0.45824,-0.53016 z m 12.329394,7.28181 c -0.217047,-0.11953 -0.45065,-0.16894 -0.683568,-0.12889 -0.751359,0.11907 -1.213275,1.10478 -1.031495,2.197 0.179998,1.08553 0.933998,1.87063 1.681128,1.74911 0.749571,-0.12573 1.211486,-1.11146 1.031489,-2.19699 -0.124971,-0.7509 -0.520409,-1.35663 -0.997554,-1.62023 z"
       style="fill:#000000;fill-opacity:1;fill-rule:evenodd;stroke:none;stroke-width:0.26458332"
       inkscape:connector-curvature="0" />
    <path
       style="fill:#b8833a;fill-opacity:1;stroke:none;stroke-width:2.64583325;stroke-linecap:round;stroke-linejoin:round;stroke-miterlimit:4;stroke-dasharray:none;stroke-opacity:1"
       d="m 68.791667,233.50005 -13.748154,23.8125 -54.99261276,-31.75 13.74815376,-23.8125 z"
       id="path4604"
       inkscape:connector-curvature="0" />
    <path
       style="fill:#d2a870;fill-opacity:1;stroke:none;stroke-width:2.64583325;stroke-linecap:round;stroke-linejoin:round;stroke-miterlimit:4;stroke-dasharray:none;stroke-opacity:1"
       d="m 0.05089864,177.93755 13.74815136,23.8125 54.992617,-31.75 -13.74815,-23.8125 z"
       id="path4600-3"
       inkscape:connector-curvature="0" />
    <path
       style="fill:#b8833a;fill-opacity:1;stroke:none;stroke-width:2.64583325;stroke-linecap:round;stroke-linejoin:round;stroke-miterlimit:4;stroke-dasharray:none;stroke-opacity:1"
       d="m 137.53243,177.93755 -13.74815,23.8125 -54.992611,-31.75 13.748153,-23.8125 z"
       id="path4604-6"
       inkscape:connector-curvature="0" />
    <path
       style="fill:#a97835;fill-opacity:1;stroke:none;stroke-width:2.64583325;stroke-linecap:round;stroke-linejoin:round;stroke-miterlimit:4;stroke-dasharray:none;stroke-opacity:1"
       d="m 68.791667,170.00005 54.992613,31.75 -54.992613,31.75 z"
       id="path4636"
       inkscape:connector-curvature="0" />
    <path
       style="fill:#cd9f61;fill-opacity:1;stroke:none;stroke-width:2.64583325;stroke-linecap:round;stroke-linejoin:round;stroke-miterlimit:4;stroke-dasharray:none;stroke-opacity:1"
       d="m 13.799054,201.75005 54.992613,-31.75 v 63.5 l -54.992613,-31.75"
       id="path4638"
       inkscape:connector-curvature="0" />
    <path
       style="fill:url(#pattern6110);fill-opacity:1;stroke:none;stroke-width:0.26458332px;stroke-linecap:butt;stroke-linejoin:miter;stroke-opacity:1"
       d="m 89.413897,277.1563 -13.74815,7.9375 v -7.9375 l 13.74815,-7.9375 z"
       id="path4640"
       inkscape:connector-curvature="0" />
    <path
       style="fill:#000000;fill-opacity:1;stroke:none;stroke-width:0.26458332px;stroke-linecap:butt;stroke-linejoin:miter;stroke-opacity:1"
       d="m 55.043514,273.18755 6.87408,3.96875 v 7.9375 l -6.87408,-3.96875 z"
       id="path4642"
       inkscape:connector-curvature="0" />
    <path
       style="fill:#000000;fill-opacity:1;stroke:none;stroke-width:0.26458332px;stroke-linecap:butt;stroke-linejoin:miter;stroke-opacity:1"
       d="m 103.16205,269.2188 6.87407,-3.96875 v -15.875 l 6.87408,-3.96875 -10.31112,-5.95312 -10.311106,17.85937 6.874076,-3.96875 z"
       id="path4646"
       inkscape:connector-curvature="0" />
    <path
       style="fill:#d2a870;fill-opacity:1;stroke:none;stroke-width:2.64583325;stroke-linecap:round;stroke-linejoin:round;stroke-miterlimit:4;stroke-dasharray:none;stroke-opacity:1"
       d="m 68.791667,233.50005 13.748152,23.8125 54.992611,-31.75 -13.74815,-23.8125 z"
       id="path4600"
       inkscape:connector-curvature="0" />
  </g>
</svg>
